<?xml version="1.0" encoding="UTF-8"?>
<svg xmlns="http://www.w3.org/2000/svg" xmlns:xlink="http://www.w3.org/1999/xlink" width="16px" height="16px" viewBox="0 0 16 16" version="1.1">
<g id="surface1">
<path style=" stroke:none;fill-rule:nonzero;fill:rgb(96.078432%,53.333336%,14.509805%);fill-opacity:1;" d="M 0 1 C 1.980469 1 3.960938 1 6 1 C 6 1.328125 6 1.660156 6 2 C 8.640625 2 11.28125 2 14 2 C 14 2.988281 14 3.980469 14 5 C 14.660156 5 15.320312 5 16 5 C 16 6.648438 16 8.300781 16 10 C 15.671875 10 15.339844 10 15 10 C 15 10.988281 15 11.980469 15 13 C 14.671875 13 14.339844 13 14 13 C 14 13.328125 14 13.660156 14 14 C 13.671875 14 13.339844 14 13 14 C 13 14.328125 13 14.660156 13 15 C 12.339844 15 11.679688 15 11 15 C 11 14.671875 11 14.339844 11 14 C 10.339844 14 9.679688 14 9 14 C 9 14.328125 9 14.660156 9 15 C 8.339844 15 7.679688 15 7 15 C 7 14.671875 7 14.339844 7 14 C 4.691406 14 2.378906 14 0 14 C 0 9.710938 0 5.421875 0 1 Z M 0 1 "/>
<path style=" stroke:none;fill-rule:nonzero;fill:rgb(86.666667%,36.862746%,12.941177%);fill-opacity:1;" d="M 0 1 C 1.980469 1 3.960938 1 6 1 C 6 1.328125 6 1.660156 6 2 C 8.640625 2 11.28125 2 14 2 C 14 2.988281 14 3.980469 14 5 C 10.371094 5 6.738281 5 3 5 C 3 5.660156 3 6.320312 3 7 C 2.671875 7 2.339844 7 2 7 C 2 7.660156 2 8.320312 2 9 C 1.671875 9 1.339844 9 1 9 C 1 9.660156 1 10.320312 1 11 C 0.671875 11 0.339844 11 0 11 C 0 7.699219 0 4.398438 0 1 Z M 0 1 "/>
<path style=" stroke:none;fill-rule:nonzero;fill:rgb(100%,94.509804%,75.294119%);fill-opacity:1;" d="M 11 11 C 12.320312 11 13.640625 11 15 11 C 15 11.660156 15 12.320312 15 13 C 14.671875 13 14.339844 13 14 13 C 14 13.328125 14 13.660156 14 14 C 13.671875 14 13.339844 14 13 14 C 13 14.328125 13 14.660156 13 15 C 12.339844 15 11.679688 15 11 15 C 11 13.679688 11 12.359375 11 11 Z M 11 11 "/>
<path style=" stroke:none;fill-rule:nonzero;fill:rgb(100%,94.509804%,75.294119%);fill-opacity:1;" d="M 5 11 C 6.320312 11 7.640625 11 9 11 C 9 12.320312 9 13.640625 9 15 C 8.339844 15 7.679688 15 7 15 C 7 14.339844 7 13.679688 7 13 C 6.339844 13 5.679688 13 5 13 C 5 12.339844 5 11.679688 5 11 Z M 5 11 "/>
<path style=" stroke:none;fill-rule:nonzero;fill:rgb(100%,94.509804%,75.294119%);fill-opacity:1;" d="M 11 5 C 11.660156 5 12.320312 5 13 5 C 13 5.660156 13 6.320312 13 7 C 13.660156 7 14.320312 7 15 7 C 15 7.660156 15 8.320312 15 9 C 13.679688 9 12.359375 9 11 9 C 11 7.679688 11 6.359375 11 5 Z M 11 5 "/>
<path style=" stroke:none;fill-rule:nonzero;fill:rgb(100%,94.509804%,75.294119%);fill-opacity:1;" d="M 7 5 C 7.660156 5 8.320312 5 9 5 C 9 6.320312 9 7.640625 9 9 C 7.679688 9 6.359375 9 5 9 C 5 8.339844 5 7.679688 5 7 C 5.660156 7 6.320312 7 7 7 C 7 6.339844 7 5.679688 7 5 Z M 7 5 "/>
<path style=" stroke:none;fill-rule:nonzero;fill:rgb(96.078432%,53.333336%,14.509805%);fill-opacity:1;" d="M 13 13 C 13.328125 13 13.660156 13 14 13 C 14 13.328125 14 13.660156 14 14 C 13.671875 14 13.339844 14 13 14 C 13 13.671875 13 13.339844 13 13 Z M 13 13 "/>
</g>
</svg>
