<?xml version="1.0" encoding="UTF-8"?>
<svg xmlns="http://www.w3.org/2000/svg" xmlns:xlink="http://www.w3.org/1999/xlink" width="16px" height="16px" viewBox="0 0 16 16" version="1.1">
<g id="surface1">
<path style=" stroke:none;fill-rule:nonzero;fill:rgb(100%,91.764706%,31.764707%);fill-opacity:1;" d="M 0 0 C 1.980469 0 3.960938 0 6 0 C 6 0.328125 6 0.660156 6 1 C 8.96875 1 11.941406 1 15 1 C 15 1.328125 15 1.660156 15 2 C 15.328125 2 15.660156 2 16 2 C 16 5.628906 16 9.261719 16 13 C 13.359375 13 10.71875 13 8 13 C 8 13.328125 8 13.660156 8 14 C 10.308594 14 12.621094 14 15 14 C 15 14.328125 15 14.660156 15 15 C 12.359375 15 9.71875 15 7 15 C 7 14.339844 7 13.679688 7 13 C 4.691406 13 2.378906 13 0 13 C 0 8.710938 0 4.421875 0 0 Z M 0 0 "/>
<path style=" stroke:none;fill-rule:nonzero;fill:rgb(100%,98.823529%,89.803922%);fill-opacity:1;" d="M 9 6 C 11.308594 6 13.621094 6 16 6 C 16 8.308594 16 10.621094 16 13 C 13.691406 13 11.378906 13 9 13 C 9 10.691406 9 8.378906 9 6 Z M 9 6 "/>
<path style=" stroke:none;fill-rule:nonzero;fill:rgb(87.843138%,67.450982%,23.529412%);fill-opacity:1;" d="M 0 0 C 1.980469 0 3.960938 0 6 0 C 6 0.328125 6 0.660156 6 1 C 8.96875 1 11.941406 1 15 1 C 15 1.328125 15 1.660156 15 2 C 10.378906 2 5.761719 2 1 2 C 1 5.628906 1 9.261719 1 13 C 0.671875 13 0.339844 13 0 13 C 0 8.710938 0 4.421875 0 0 Z M 0 0 "/>
<path style=" stroke:none;fill-rule:nonzero;fill:rgb(100%,98.823529%,89.803922%);fill-opacity:1;" d="M 7 7 C 7.328125 7 7.660156 7 8 7 C 8 9.308594 8 11.621094 8 14 C 10.308594 14 12.621094 14 15 14 C 15 14.328125 15 14.660156 15 15 C 12.359375 15 9.71875 15 7 15 C 7 12.359375 7 9.71875 7 7 Z M 7 7 "/>
<path style=" stroke:none;fill-rule:nonzero;fill:rgb(100%,91.764706%,31.764707%);fill-opacity:1;" d="M 13 10 C 13.660156 10 14.320312 10 15 10 C 15 10.660156 15 11.320312 15 12 C 14.339844 12 13.679688 12 13 12 C 13 11.339844 13 10.679688 13 10 Z M 13 10 "/>
<path style=" stroke:none;fill-rule:nonzero;fill:rgb(100%,91.764706%,31.764707%);fill-opacity:1;" d="M 10 10 C 10.660156 10 11.320312 10 12 10 C 12 10.660156 12 11.320312 12 12 C 11.339844 12 10.679688 12 10 12 C 10 11.339844 10 10.679688 10 10 Z M 10 10 "/>
<path style=" stroke:none;fill-rule:nonzero;fill:rgb(100%,91.764706%,31.764707%);fill-opacity:1;" d="M 13 7 C 13.660156 7 14.320312 7 15 7 C 15 7.660156 15 8.320312 15 9 C 14.339844 9 13.679688 9 13 9 C 13 8.339844 13 7.679688 13 7 Z M 13 7 "/>
<path style=" stroke:none;fill-rule:nonzero;fill:rgb(100%,91.764706%,31.764707%);fill-opacity:1;" d="M 10 7 C 10.660156 7 11.320312 7 12 7 C 12 7.660156 12 8.320312 12 9 C 11.339844 9 10.679688 9 10 9 C 10 8.339844 10 7.679688 10 7 Z M 10 7 "/>
</g>
</svg>
