<?xml version="1.0" encoding="UTF-8"?>
<svg xmlns="http://www.w3.org/2000/svg" xmlns:xlink="http://www.w3.org/1999/xlink" width="16px" height="16px" viewBox="0 0 16 16" version="1.1">
<g id="surface1">
<path style=" stroke:none;fill-rule:nonzero;fill:rgb(39.215687%,59.607846%,67.843139%);fill-opacity:1;" d="M 0 0 C 1.980469 0 3.960938 0 6 0 C 6 0.328125 6 0.660156 6 1 C 8.640625 1 11.28125 1 14 1 C 14 1.988281 14 2.980469 14 4 C 14.660156 4 15.320312 4 16 4 C 16 6.96875 16 9.941406 16 13 C 15.671875 13 15.339844 13 15 13 C 15 13.328125 15 13.660156 15 14 C 12.03125 14 9.058594 14 6 14 C 6 13.671875 6 13.339844 6 13 C 4.019531 13 2.039062 13 0 13 C 0 8.710938 0 4.421875 0 0 Z M 0 0 "/>
<path style=" stroke:none;fill-rule:nonzero;fill:rgb(90.980393%,99.215686%,100%);fill-opacity:1;" d="M 8 5 C 8.328125 5 8.660156 5 9 5 C 9 5.328125 9 5.660156 9 6 C 9.988281 6 10.980469 6 12 6 C 12 5.671875 12 5.339844 12 5 C 12.328125 5 12.660156 5 13 5 C 13 5.328125 13 5.660156 13 6 C 13.660156 6 14.320312 6 15 6 C 15 6.328125 15 6.660156 15 7 C 15.328125 7 15.660156 7 16 7 C 16 8.980469 16 10.960938 16 13 C 15.671875 13 15.339844 13 15 13 C 15 13.328125 15 13.660156 15 14 C 12.03125 14 9.058594 14 6 14 C 6 13.671875 6 13.339844 6 13 C 5.671875 13 5.339844 13 5 13 C 5 11.019531 5 9.039062 5 7 C 5.328125 7 5.660156 7 6 7 C 6 6.671875 6 6.339844 6 6 C 6.660156 6 7.320312 6 8 6 C 8 5.671875 8 5.339844 8 5 Z M 8 5 "/>
<path style=" stroke:none;fill-rule:nonzero;fill:rgb(55.686277%,79.215688%,81.960785%);fill-opacity:1;" d="M 3 4 C 7.289062 4 11.578125 4 16 4 C 16 4.988281 16 5.980469 16 7 C 15.671875 7 15.339844 7 15 7 C 15 6.671875 15 6.339844 15 6 C 14.339844 6 13.679688 6 13 6 C 13 5.671875 13 5.339844 13 5 C 12.671875 5 12.339844 5 12 5 C 12 5.328125 12 5.660156 12 6 C 11.011719 6 10.019531 6 9 6 C 9 5.671875 9 5.339844 9 5 C 8.671875 5 8.339844 5 8 5 C 8 5.328125 8 5.660156 8 6 C 7.339844 6 6.679688 6 6 6 C 6 6.328125 6 6.660156 6 7 C 5.671875 7 5.339844 7 5 7 C 5 8.980469 5 10.960938 5 13 C 3.351562 13 1.699219 13 0 13 C 0 12.011719 0 11.019531 0 10 C 0.328125 10 0.660156 10 1 10 C 1 9.339844 1 8.679688 1 8 C 1.328125 8 1.660156 8 2 8 C 2 7.339844 2 6.679688 2 6 C 2.328125 6 2.660156 6 3 6 C 3 5.339844 3 4.679688 3 4 Z M 3 4 "/>
<path style=" stroke:none;fill-rule:nonzero;fill:rgb(90.980393%,99.215686%,100%);fill-opacity:1;" d="M 9 4 C 9.988281 4 10.980469 4 12 4 C 12 4.328125 12 4.660156 12 5 C 11.011719 5 10.019531 5 9 5 C 9 4.671875 9 4.339844 9 4 Z M 9 4 "/>
</g>
</svg>
