<?xml version="1.0" encoding="UTF-8"?>
<svg xmlns="http://www.w3.org/2000/svg" xmlns:xlink="http://www.w3.org/1999/xlink" width="16px" height="16px" viewBox="0 0 16 16" version="1.1">
<g id="surface1">
<path style=" stroke:none;fill-rule:nonzero;fill:rgb(97.647059%,59.607846%,60.784316%);fill-opacity:1;" d="M 0 0 C 1.980469 0 3.960938 0 6 0 C 6 0.328125 6 0.660156 6 1 C 8.96875 1 11.941406 1 15 1 C 15 1.328125 15 1.660156 15 2 C 15.328125 2 15.660156 2 16 2 C 16 5.960938 16 9.921875 16 14 C 14.351562 14 12.699219 14 11 14 C 11 13.671875 11 13.339844 11 13 C 10.671875 13 10.339844 13 10 13 C 10 13.328125 10 13.660156 10 14 C 7.691406 14 5.378906 14 3 14 C 3 13.671875 3 13.339844 3 13 C 2.011719 13 1.019531 13 0 13 C 0 8.710938 0 4.421875 0 0 Z M 0 0 "/>
<path style=" stroke:none;fill-rule:nonzero;fill:rgb(98.823529%,33.333334%,37.64706%);fill-opacity:1;" d="M 0 0 C 1.980469 0 3.960938 0 6 0 C 6 0.328125 6 0.660156 6 1 C 8.96875 1 11.941406 1 15 1 C 15 1.328125 15 1.660156 15 2 C 10.378906 2 5.761719 2 1 2 C 1 5.628906 1 9.261719 1 13 C 0.671875 13 0.339844 13 0 13 C 0 8.710938 0 4.421875 0 0 Z M 0 0 "/>
<path style=" stroke:none;fill-rule:nonzero;fill:rgb(100%,89.803922%,89.803922%);fill-opacity:1;" d="M 11 9 C 12.648438 9 14.300781 9 16 9 C 16 10.648438 16 12.300781 16 14 C 14.351562 14 12.699219 14 11 14 C 11 12.351562 11 10.699219 11 9 Z M 11 9 "/>
<path style=" stroke:none;fill-rule:nonzero;fill:rgb(100%,89.803922%,89.803922%);fill-opacity:1;" d="M 6 8 C 6.328125 8 6.660156 8 7 8 C 7 8.328125 7 8.660156 7 9 C 7.328125 9 7.660156 9 8 9 C 8 9.660156 8 10.320312 8 11 C 8.328125 11 8.660156 11 9 11 C 9 11.660156 9 12.320312 9 13 C 9.328125 13 9.660156 13 10 13 C 10 13.328125 10 13.660156 10 14 C 7.691406 14 5.378906 14 3 14 C 3 13.671875 3 13.339844 3 13 C 3.328125 13 3.660156 13 4 13 C 4 12.339844 4 11.679688 4 11 C 4.328125 11 4.660156 11 5 11 C 5 10.339844 5 9.679688 5 9 C 5.328125 9 5.660156 9 6 9 C 6 8.671875 6 8.339844 6 8 Z M 6 8 "/>
<path style=" stroke:none;fill-rule:nonzero;fill:rgb(100%,89.803922%,89.803922%);fill-opacity:1;" d="M 9 3 C 9.988281 3 10.980469 3 12 3 C 12 3.328125 12 3.660156 12 4 C 12.328125 4 12.660156 4 13 4 C 13 4.988281 13 5.980469 13 7 C 12.671875 7 12.339844 7 12 7 C 12 7.328125 12 7.660156 12 8 C 11.011719 8 10.019531 8 9 8 C 9 7.671875 9 7.339844 9 7 C 8.671875 7 8.339844 7 8 7 C 8 6.011719 8 5.019531 8 4 C 8.328125 4 8.660156 4 9 4 C 9 3.671875 9 3.339844 9 3 Z M 9 3 "/>
</g>
</svg>
