<?xml version="1.0" encoding="UTF-8"?>
<svg xmlns="http://www.w3.org/2000/svg" xmlns:xlink="http://www.w3.org/1999/xlink" width="16px" height="16px" viewBox="0 0 16 16" version="1.1">
<g id="surface1">
<path style=" stroke:none;fill-rule:nonzero;fill:rgb(85.882354%,87.058824%,100%);fill-opacity:1;" d="M 0 0 C 1.980469 0 3.960938 0 6 0 C 6 0.328125 6 0.660156 6 1 C 8.96875 1 11.941406 1 15 1 C 15 1.328125 15 1.660156 15 2 C 15.328125 2 15.660156 2 16 2 C 16 5.628906 16 9.261719 16 13 C 15.671875 13 15.339844 13 15 13 C 15 13.328125 15 13.660156 15 14 C 14.339844 14 13.679688 14 13 14 C 13 13.671875 13 13.339844 13 13 C 12.671875 13 12.339844 13 12 13 C 12 13.328125 12 13.660156 12 14 C 11.671875 14 11.339844 14 11 14 C 11 14.328125 11 14.660156 11 15 C 10.011719 15 9.019531 15 8 15 C 8 14.671875 8 14.339844 8 14 C 7.671875 14 7.339844 14 7 14 C 7 13.671875 7 13.339844 7 13 C 6.671875 13 6.339844 13 6 13 C 6 13.328125 6 13.660156 6 14 C 5.339844 14 4.679688 14 4 14 C 4 13.671875 4 13.339844 4 13 C 2.679688 13 1.359375 13 0 13 C 0 8.710938 0 4.421875 0 0 Z M 0 0 "/>
<path style=" stroke:none;fill-rule:nonzero;fill:rgb(48.627451%,49.019608%,60.784316%);fill-opacity:1;" d="M 0 0 C 1.980469 0 3.960938 0 6 0 C 6 0.328125 6 0.660156 6 1 C 8.96875 1 11.941406 1 15 1 C 15 1.328125 15 1.660156 15 2 C 15.328125 2 15.660156 2 16 2 C 16 3.980469 16 5.960938 16 8 C 15.671875 8 15.339844 8 15 8 C 15 7.671875 15 7.339844 15 7 C 14.671875 7 14.339844 7 14 7 C 14 6.671875 14 6.339844 14 6 C 14.328125 6 14.660156 6 15 6 C 15 5.339844 15 4.679688 15 4 C 14.339844 4 13.679688 4 13 4 C 13 4.328125 13 4.660156 13 5 C 12.671875 5 12.339844 5 12 5 C 12 4.671875 12 4.339844 12 4 C 11.671875 4 11.339844 4 11 4 C 11 3.671875 11 3.339844 11 3 C 10.011719 3 9.019531 3 8 3 C 8 3.328125 8 3.660156 8 4 C 7.671875 4 7.339844 4 7 4 C 7 4.328125 7 4.660156 7 5 C 6.671875 5 6.339844 5 6 5 C 6 4.671875 6 4.339844 6 4 C 5.339844 4 4.679688 4 4 4 C 4 4.660156 4 5.320312 4 6 C 4.328125 6 4.660156 6 5 6 C 5 6.328125 5 6.660156 5 7 C 4.671875 7 4.339844 7 4 7 C 4 7.328125 4 7.660156 4 8 C 3.671875 8 3.339844 8 3 8 C 3 8.660156 3 9.320312 3 10 C 3.328125 10 3.660156 10 4 10 C 4 10.328125 4 10.660156 4 11 C 4.328125 11 4.660156 11 5 11 C 5 11.328125 5 11.660156 5 12 C 4.671875 12 4.339844 12 4 12 C 4 12.328125 4 12.660156 4 13 C 2.679688 13 1.359375 13 0 13 C 0 8.710938 0 4.421875 0 0 Z M 0 0 "/>
<path style=" stroke:none;fill-rule:nonzero;fill:rgb(29.803923%,29.803923%,40.000001%);fill-opacity:1;" d="M 0 0 C 1.980469 0 3.960938 0 6 0 C 6 0.328125 6 0.660156 6 1 C 8.96875 1 11.941406 1 15 1 C 15 1.328125 15 1.660156 15 2 C 10.378906 2 5.761719 2 1 2 C 1 5.628906 1 9.261719 1 13 C 0.671875 13 0.339844 13 0 13 C 0 8.710938 0 4.421875 0 0 Z M 0 0 "/>
<path style=" stroke:none;fill-rule:nonzero;fill:rgb(48.627451%,49.019608%,60.784316%);fill-opacity:1;" d="M 8 6 C 8.988281 6 9.980469 6 11 6 C 11 6.328125 11 6.660156 11 7 C 11.328125 7 11.660156 7 12 7 C 12 7.328125 12 7.660156 12 8 C 12.328125 8 12.660156 8 13 8 C 13 8.660156 13 9.320312 13 10 C 12.671875 10 12.339844 10 12 10 C 12 10.328125 12 10.660156 12 11 C 11.671875 11 11.339844 11 11 11 C 11 11.328125 11 11.660156 11 12 C 10.011719 12 9.019531 12 8 12 C 8 11.671875 8 11.339844 8 11 C 7.671875 11 7.339844 11 7 11 C 7 10.671875 7 10.339844 7 10 C 6.671875 10 6.339844 10 6 10 C 6 9.339844 6 8.679688 6 8 C 6.328125 8 6.660156 8 7 8 C 7 7.671875 7 7.339844 7 7 C 7.328125 7 7.660156 7 8 7 C 8 6.671875 8 6.339844 8 6 Z M 8 6 "/>
<path style=" stroke:none;fill-rule:nonzero;fill:rgb(48.627451%,49.019608%,60.784316%);fill-opacity:1;" d="M 15 10 C 15.328125 10 15.660156 10 16 10 C 16 10.988281 16 11.980469 16 13 C 15.671875 13 15.339844 13 15 13 C 15 12.671875 15 12.339844 15 12 C 14.671875 12 14.339844 12 14 12 C 14 11.671875 14 11.339844 14 11 C 14.328125 11 14.660156 11 15 11 C 15 10.671875 15 10.339844 15 10 Z M 15 10 "/>
</g>
</svg>
