<?xml version="1.0" encoding="UTF-8"?>
<svg xmlns="http://www.w3.org/2000/svg" xmlns:xlink="http://www.w3.org/1999/xlink" width="16px" height="16px" viewBox="0 0 16 16" version="1.1">
<g id="surface1">
<path style=" stroke:none;fill-rule:nonzero;fill:rgb(26.666668%,52.549022%,88.627452%);fill-opacity:1;" d="M 0 0 C 1.980469 0 3.960938 0 6 0 C 6 0.328125 6 0.660156 6 1 C 8.640625 1 11.28125 1 14 1 C 14 1.988281 14 2.980469 14 4 C 14.660156 4 15.320312 4 16 4 C 16 5.648438 16 7.300781 16 9 C 15.671875 9 15.339844 9 15 9 C 15 10.648438 15 12.300781 15 14 C 14.011719 14 13.019531 14 12 14 C 12 13.671875 12 13.339844 12 13 C 11.671875 13 11.339844 13 11 13 C 11 13.328125 11 13.660156 11 14 C 10.011719 14 9.019531 14 8 14 C 8 13.671875 8 13.339844 8 13 C 7.671875 13 7.339844 13 7 13 C 7 13.328125 7 13.660156 7 14 C 6.011719 14 5.019531 14 4 14 C 4 13.671875 4 13.339844 4 13 C 2.679688 13 1.359375 13 0 13 C 0 8.710938 0 4.421875 0 0 Z M 0 0 "/>
<path style=" stroke:none;fill-rule:nonzero;fill:rgb(85.882354%,98.431373%,100%);fill-opacity:1;" d="M 12 4 C 13.320312 4 14.640625 4 16 4 C 16 5.648438 16 7.300781 16 9 C 15.671875 9 15.339844 9 15 9 C 15 10.648438 15 12.300781 15 14 C 14.011719 14 13.019531 14 12 14 C 12 10.699219 12 7.398438 12 4 Z M 12 4 "/>
<path style=" stroke:none;fill-rule:nonzero;fill:rgb(85.882354%,98.431373%,100%);fill-opacity:1;" d="M 8 4 C 8.988281 4 9.980469 4 11 4 C 11 7.300781 11 10.601562 11 14 C 10.011719 14 9.019531 14 8 14 C 8 10.699219 8 7.398438 8 4 Z M 8 4 "/>
<path style=" stroke:none;fill-rule:nonzero;fill:rgb(85.882354%,98.431373%,100%);fill-opacity:1;" d="M 4 4 C 4.988281 4 5.980469 4 7 4 C 7 7.300781 7 10.601562 7 14 C 6.011719 14 5.019531 14 4 14 C 4 10.699219 4 7.398438 4 4 Z M 4 4 "/>
<path style=" stroke:none;fill-rule:nonzero;fill:rgb(45.490196%,76.078433%,92.941177%);fill-opacity:1;" d="M 3 4 C 3.328125 4 3.660156 4 4 4 C 4 6.96875 4 9.941406 4 13 C 2.679688 13 1.359375 13 0 13 C 0 12.011719 0 11.019531 0 10 C 0.328125 10 0.660156 10 1 10 C 1 9.339844 1 8.679688 1 8 C 1.328125 8 1.660156 8 2 8 C 2 7.339844 2 6.679688 2 6 C 2.328125 6 2.660156 6 3 6 C 3 5.339844 3 4.679688 3 4 Z M 3 4 "/>
<path style=" stroke:none;fill-rule:nonzero;fill:rgb(45.490196%,76.078433%,92.941177%);fill-opacity:1;" d="M 11 4 C 11.328125 4 11.660156 4 12 4 C 12 6.96875 12 9.941406 12 13 C 11.671875 13 11.339844 13 11 13 C 11 10.03125 11 7.058594 11 4 Z M 11 4 "/>
<path style=" stroke:none;fill-rule:nonzero;fill:rgb(45.490196%,76.078433%,92.941177%);fill-opacity:1;" d="M 7 4 C 7.328125 4 7.660156 4 8 4 C 8 6.96875 8 9.941406 8 13 C 7.671875 13 7.339844 13 7 13 C 7 10.03125 7 7.058594 7 4 Z M 7 4 "/>
<path style=" stroke:none;fill-rule:nonzero;fill:rgb(45.490196%,76.078433%,92.941177%);fill-opacity:1;" d="M 15 4 C 15.328125 4 15.660156 4 16 4 C 16 5.648438 16 7.300781 16 9 C 15.671875 9 15.339844 9 15 9 C 15 7.351562 15 5.699219 15 4 Z M 15 4 "/>
</g>
</svg>
