<?xml version="1.0" encoding="UTF-8"?>
<svg xmlns="http://www.w3.org/2000/svg" xmlns:xlink="http://www.w3.org/1999/xlink" width="16px" height="16px" viewBox="0 0 16 16" version="1.1">
<g id="surface1">
<path style=" stroke:none;fill-rule:nonzero;fill:rgb(45.490196%,76.078433%,92.941177%);fill-opacity:1;" d="M 0 0 C 1.980469 0 3.960938 0 6 0 C 6 0.328125 6 0.660156 6 1 C 8.96875 1 11.941406 1 15 1 C 15 1.328125 15 1.660156 15 2 C 15.328125 2 15.660156 2 16 2 C 16 5.628906 16 9.261719 16 13 C 15.671875 13 15.339844 13 15 13 C 15 13.328125 15 13.660156 15 14 C 14.011719 14 13.019531 14 12 14 C 12 13.671875 12 13.339844 12 13 C 11.671875 13 11.339844 13 11 13 C 11 13.328125 11 13.660156 11 14 C 10.011719 14 9.019531 14 8 14 C 8 13.671875 8 13.339844 8 13 C 7.671875 13 7.339844 13 7 13 C 7 13.328125 7 13.660156 7 14 C 6.011719 14 5.019531 14 4 14 C 4 13.671875 4 13.339844 4 13 C 2.679688 13 1.359375 13 0 13 C 0 8.710938 0 4.421875 0 0 Z M 0 0 "/>
<path style=" stroke:none;fill-rule:nonzero;fill:rgb(26.666668%,52.549022%,88.627452%);fill-opacity:1;" d="M 0 0 C 1.980469 0 3.960938 0 6 0 C 6 0.328125 6 0.660156 6 1 C 8.96875 1 11.941406 1 15 1 C 15 1.328125 15 1.660156 15 2 C 10.378906 2 5.761719 2 1 2 C 1 5.628906 1 9.261719 1 13 C 0.671875 13 0.339844 13 0 13 C 0 8.710938 0 4.421875 0 0 Z M 0 0 "/>
<path style=" stroke:none;fill-rule:nonzero;fill:rgb(85.882354%,98.431373%,100%);fill-opacity:1;" d="M 12 4 C 12.988281 4 13.980469 4 15 4 C 15 7.300781 15 10.601562 15 14 C 14.011719 14 13.019531 14 12 14 C 12 10.699219 12 7.398438 12 4 Z M 12 4 "/>
<path style=" stroke:none;fill-rule:nonzero;fill:rgb(85.882354%,98.431373%,100%);fill-opacity:1;" d="M 8 4 C 8.988281 4 9.980469 4 11 4 C 11 7.300781 11 10.601562 11 14 C 10.011719 14 9.019531 14 8 14 C 8 10.699219 8 7.398438 8 4 Z M 8 4 "/>
<path style=" stroke:none;fill-rule:nonzero;fill:rgb(85.882354%,98.431373%,100%);fill-opacity:1;" d="M 4 4 C 4.988281 4 5.980469 4 7 4 C 7 7.300781 7 10.601562 7 14 C 6.011719 14 5.019531 14 4 14 C 4 10.699219 4 7.398438 4 4 Z M 4 4 "/>
</g>
</svg>
