<?xml version="1.0" encoding="UTF-8"?>
<svg xmlns="http://www.w3.org/2000/svg" xmlns:xlink="http://www.w3.org/1999/xlink" width="16px" height="16px" viewBox="0 0 16 16" version="1.1">
<g id="surface1">
<path style=" stroke:none;fill-rule:nonzero;fill:rgb(89.803922%,96.470588%,100%);fill-opacity:1;" d="M 0 0 C 1.980469 0 3.960938 0 6 0 C 6 0.328125 6 0.660156 6 1 C 8.640625 1 11.28125 1 14 1 C 14 1.988281 14 2.980469 14 4 C 14.660156 4 15.320312 4 16 4 C 16 7.300781 16 10.601562 16 14 C 12.039062 14 8.078125 14 4 14 C 4 13.671875 4 13.339844 4 13 C 2.679688 13 1.359375 13 0 13 C 0 8.710938 0 4.421875 0 0 Z M 14 11 C 14 11.660156 14 12.320312 14 13 C 14.328125 13 14.660156 13 15 13 C 15 12.339844 15 11.679688 15 11 C 14.671875 11 14.339844 11 14 11 Z M 14 11 "/>
<path style=" stroke:none;fill-rule:nonzero;fill:rgb(26.666668%,52.549022%,88.627452%);fill-opacity:1;" d="M 0 0 C 1.980469 0 3.960938 0 6 0 C 6 0.328125 6 0.660156 6 1 C 8.640625 1 11.28125 1 14 1 C 14 1.988281 14 2.980469 14 4 C 14.660156 4 15.320312 4 16 4 C 16 4.328125 16 4.660156 16 5 C 12.039062 5 8.078125 5 4 5 C 4 7.640625 4 10.28125 4 13 C 2.679688 13 1.359375 13 0 13 C 0 8.710938 0 4.421875 0 0 Z M 0 0 "/>
<path style=" stroke:none;fill-rule:nonzero;fill:rgb(45.490196%,76.078433%,92.941177%);fill-opacity:1;" d="M 8 6 C 10.308594 6 12.621094 6 15 6 C 15 7.648438 15 9.300781 15 11 C 14.671875 11 14.339844 11 14 11 C 14 11.660156 14 12.320312 14 13 C 12.019531 13 10.039062 13 8 13 C 8 10.691406 8 8.378906 8 6 Z M 8 6 "/>
<path style=" stroke:none;fill-rule:nonzero;fill:rgb(45.490196%,76.078433%,92.941177%);fill-opacity:1;" d="M 3 4 C 7.289062 4 11.578125 4 16 4 C 16 4.328125 16 4.660156 16 5 C 12.039062 5 8.078125 5 4 5 C 4 7.640625 4 10.28125 4 13 C 2.679688 13 1.359375 13 0 13 C 0 12.011719 0 11.019531 0 10 C 0.328125 10 0.660156 10 1 10 C 1 9.339844 1 8.679688 1 8 C 1.328125 8 1.660156 8 2 8 C 2 7.339844 2 6.679688 2 6 C 2.328125 6 2.660156 6 3 6 C 3 5.339844 3 4.679688 3 4 Z M 3 4 "/>
<path style=" stroke:none;fill-rule:nonzero;fill:rgb(89.803922%,96.470588%,100%);fill-opacity:1;" d="M 9 9 C 10.648438 9 12.300781 9 14 9 C 14 9.328125 14 9.660156 14 10 C 12.351562 10 10.699219 10 9 10 C 9 9.671875 9 9.339844 9 9 Z M 9 9 "/>
<path style=" stroke:none;fill-rule:nonzero;fill:rgb(89.803922%,96.470588%,100%);fill-opacity:1;" d="M 9 7 C 10.648438 7 12.300781 7 14 7 C 14 7.328125 14 7.660156 14 8 C 12.351562 8 10.699219 8 9 8 C 9 7.671875 9 7.339844 9 7 Z M 9 7 "/>
<path style=" stroke:none;fill-rule:nonzero;fill:rgb(89.803922%,96.470588%,100%);fill-opacity:1;" d="M 9 11 C 9.988281 11 10.980469 11 12 11 C 12 11.328125 12 11.660156 12 12 C 11.011719 12 10.019531 12 9 12 C 9 11.671875 9 11.339844 9 11 Z M 9 11 "/>
</g>
</svg>
