<?xml version="1.0" encoding="UTF-8"?>
<svg xmlns="http://www.w3.org/2000/svg" xmlns:xlink="http://www.w3.org/1999/xlink" width="16px" height="16px" viewBox="0 0 16 16" version="1.1">
<g id="surface1">
<path style=" stroke:none;fill-rule:nonzero;fill:rgb(89.803922%,96.470588%,100%);fill-opacity:1;" d="M 0 0 C 1.980469 0 3.960938 0 6 0 C 6 0.328125 6 0.660156 6 1 C 8.96875 1 11.941406 1 15 1 C 15 1.328125 15 1.660156 15 2 C 15.328125 2 15.660156 2 16 2 C 16 5.960938 16 9.921875 16 14 C 12.039062 14 8.078125 14 4 14 C 4 13.671875 4 13.339844 4 13 C 2.679688 13 1.359375 13 0 13 C 0 8.710938 0 4.421875 0 0 Z M 0 0 "/>
<path style=" stroke:none;fill-rule:nonzero;fill:rgb(45.490196%,76.078433%,92.941177%);fill-opacity:1;" d="M 0 0 C 1.980469 0 3.960938 0 6 0 C 6 0.328125 6 0.660156 6 1 C 8.96875 1 11.941406 1 15 1 C 15 1.328125 15 1.660156 15 2 C 15.328125 2 15.660156 2 16 2 C 16 2.988281 16 3.980469 16 5 C 12.039062 5 8.078125 5 4 5 C 4 7.640625 4 10.28125 4 13 C 2.679688 13 1.359375 13 0 13 C 0 8.710938 0 4.421875 0 0 Z M 0 0 "/>
<path style=" stroke:none;fill-rule:nonzero;fill:rgb(45.490196%,76.078433%,92.941177%);fill-opacity:1;" d="M 8 6 C 10.308594 6 12.621094 6 15 6 C 15 8.308594 15 10.621094 15 13 C 12.691406 13 10.378906 13 8 13 C 8 10.691406 8 8.378906 8 6 Z M 8 6 "/>
<path style=" stroke:none;fill-rule:nonzero;fill:rgb(26.666668%,52.549022%,88.627452%);fill-opacity:1;" d="M 0 0 C 1.980469 0 3.960938 0 6 0 C 6 0.328125 6 0.660156 6 1 C 8.96875 1 11.941406 1 15 1 C 15 1.328125 15 1.660156 15 2 C 10.378906 2 5.761719 2 1 2 C 1 5.628906 1 9.261719 1 13 C 0.671875 13 0.339844 13 0 13 C 0 8.710938 0 4.421875 0 0 Z M 0 0 "/>
<path style=" stroke:none;fill-rule:nonzero;fill:rgb(89.803922%,96.470588%,100%);fill-opacity:1;" d="M 9 9 C 10.648438 9 12.300781 9 14 9 C 14 9.328125 14 9.660156 14 10 C 12.351562 10 10.699219 10 9 10 C 9 9.671875 9 9.339844 9 9 Z M 9 9 "/>
<path style=" stroke:none;fill-rule:nonzero;fill:rgb(89.803922%,96.470588%,100%);fill-opacity:1;" d="M 9 7 C 10.648438 7 12.300781 7 14 7 C 14 7.328125 14 7.660156 14 8 C 12.351562 8 10.699219 8 9 8 C 9 7.671875 9 7.339844 9 7 Z M 9 7 "/>
<path style=" stroke:none;fill-rule:nonzero;fill:rgb(89.803922%,96.470588%,100%);fill-opacity:1;" d="M 9 11 C 9.988281 11 10.980469 11 12 11 C 12 11.328125 12 11.660156 12 12 C 11.011719 12 10.019531 12 9 12 C 9 11.671875 9 11.339844 9 11 Z M 9 11 "/>
</g>
</svg>
