<?xml version="1.0" encoding="UTF-8"?>
<svg xmlns="http://www.w3.org/2000/svg" xmlns:xlink="http://www.w3.org/1999/xlink" width="16px" height="16px" viewBox="0 0 16 16" version="1.1">
<g id="surface1">
<path style=" stroke:none;fill-rule:nonzero;fill:rgb(100%,100%,89.803922%);fill-opacity:1;" d="M 0 1 C 1.980469 1 3.960938 1 6 1 C 6 1.328125 6 1.660156 6 2 C 8.640625 2 11.28125 2 14 2 C 14 2.988281 14 3.980469 14 5 C 14.660156 5 15.320312 5 16 5 C 16 6.648438 16 8.300781 16 10 C 15.671875 10 15.339844 10 15 10 C 15 11.320312 15 12.640625 15 14 C 15.328125 14 15.660156 14 16 14 C 16 14.328125 16 14.660156 16 15 C 15.339844 15 14.679688 15 14 15 C 14 14.671875 14 14.339844 14 14 C 13.011719 14 12.019531 14 11 14 C 11 14.328125 11 14.660156 11 15 C 10.011719 15 9.019531 15 8 15 C 8 14.671875 8 14.339844 8 14 C 7.011719 14 6.019531 14 5 14 C 5 14.328125 5 14.660156 5 15 C 4.339844 15 3.679688 15 3 15 C 3 14.671875 3 14.339844 3 14 C 2.011719 14 1.019531 14 0 14 C 0 9.710938 0 5.421875 0 1 Z M 0 1 "/>
<path style=" stroke:none;fill-rule:nonzero;fill:rgb(43.921569%,60.784316%,10.196079%);fill-opacity:1;" d="M 0 1 C 1.980469 1 3.960938 1 6 1 C 6 1.328125 6 1.660156 6 2 C 8.640625 2 11.28125 2 14 2 C 14 2.660156 14 3.320312 14 4 C 13.011719 4 12.019531 4 11 4 C 11 4.660156 11 5.320312 11 6 C 10.011719 6 9.019531 6 8 6 C 8 5.339844 8 4.679688 8 4 C 7.011719 4 6.019531 4 5 4 C 5 4.328125 5 4.660156 5 5 C 5.660156 5 6.320312 5 7 5 C 7 5.988281 7 6.980469 7 8 C 6.671875 8 6.339844 8 6 8 C 6 8.328125 6 8.660156 6 9 C 5.339844 9 4.679688 9 4 9 C 4 8.671875 4 8.339844 4 8 C 3.671875 8 3.339844 8 3 8 C 3 8.660156 3 9.320312 3 10 C 3.988281 10 4.980469 10 6 10 C 6 10.660156 6 11.320312 6 12 C 5.339844 12 4.679688 12 4 12 C 4 12.660156 4 13.320312 4 14 C 2.679688 14 1.359375 14 0 14 C 0 9.710938 0 5.421875 0 1 Z M 0 1 "/>
<path style=" stroke:none;fill-rule:nonzero;fill:rgb(65.490198%,82.745099%,17.254902%);fill-opacity:1;" d="M 3 5 C 4.320312 5 5.640625 5 7 5 C 7 5.988281 7 6.980469 7 8 C 6.671875 8 6.339844 8 6 8 C 6 8.328125 6 8.660156 6 9 C 5.339844 9 4.679688 9 4 9 C 4 8.671875 4 8.339844 4 8 C 3.671875 8 3.339844 8 3 8 C 3 8.660156 3 9.320312 3 10 C 3.988281 10 4.980469 10 6 10 C 6 10.660156 6 11.320312 6 12 C 5.339844 12 4.679688 12 4 12 C 4 12.660156 4 13.320312 4 14 C 2.679688 14 1.359375 14 0 14 C 0 13.011719 0 12.019531 0 11 C 0.328125 11 0.660156 11 1 11 C 1 10.339844 1 9.679688 1 9 C 1.328125 9 1.660156 9 2 9 C 2 8.339844 2 7.679688 2 7 C 2.328125 7 2.660156 7 3 7 C 3 6.339844 3 5.679688 3 5 Z M 3 5 "/>
<path style=" stroke:none;fill-rule:nonzero;fill:rgb(65.490198%,82.745099%,17.254902%);fill-opacity:1;" d="M 12 5 C 13.320312 5 14.640625 5 16 5 C 16 5.988281 16 6.980469 16 8 C 15.671875 8 15.339844 8 15 8 C 15 8.328125 15 8.660156 15 9 C 14.339844 9 13.679688 9 13 9 C 13 8.671875 13 8.339844 13 8 C 12.671875 8 12.339844 8 12 8 C 12 7.011719 12 6.019531 12 5 Z M 12 5 "/>
<path style=" stroke:none;fill-rule:nonzero;fill:rgb(65.490198%,82.745099%,17.254902%);fill-opacity:1;" d="M 8 12 C 8.988281 12 9.980469 12 11 12 C 11 12.328125 11 12.660156 11 13 C 10.671875 13 10.339844 13 10 13 C 10 13.328125 10 13.660156 10 14 C 9.671875 14 9.339844 14 9 14 C 9 13.671875 9 13.339844 9 13 C 8.671875 13 8.339844 13 8 13 C 8 12.671875 8 12.339844 8 12 Z M 8 12 "/>
<path style=" stroke:none;fill-rule:nonzero;fill:rgb(65.490198%,82.745099%,17.254902%);fill-opacity:1;" d="M 13 10 C 13.660156 10 14.320312 10 15 10 C 15 10.660156 15 11.320312 15 12 C 14.339844 12 13.679688 12 13 12 C 13 11.339844 13 10.679688 13 10 Z M 13 10 "/>
<path style=" stroke:none;fill-rule:nonzero;fill:rgb(65.490198%,82.745099%,17.254902%);fill-opacity:1;" d="M 9 8 C 9.328125 8 9.660156 8 10 8 C 10 8.328125 10 8.660156 10 9 C 10.328125 9 10.660156 9 11 9 C 11 9.328125 11 9.660156 11 10 C 10.011719 10 9.019531 10 8 10 C 8 9.671875 8 9.339844 8 9 C 8.328125 9 8.660156 9 9 9 C 9 8.671875 9 8.339844 9 8 Z M 9 8 "/>
<path style=" stroke:none;fill-rule:nonzero;fill:rgb(65.490198%,82.745099%,17.254902%);fill-opacity:1;" d="M 8 5 C 8.988281 5 9.980469 5 11 5 C 11 5.328125 11 5.660156 11 6 C 10.011719 6 9.019531 6 8 6 C 8 5.671875 8 5.339844 8 5 Z M 8 5 "/>
<path style=" stroke:none;fill-rule:nonzero;fill:rgb(65.490198%,82.745099%,17.254902%);fill-opacity:1;" d="M 12 13 C 12.660156 13 13.320312 13 14 13 C 14 13.328125 14 13.660156 14 14 C 13.339844 14 12.679688 14 12 14 C 12 13.671875 12 13.339844 12 13 Z M 12 13 "/>
<path style=" stroke:none;fill-rule:nonzero;fill:rgb(65.490198%,82.745099%,17.254902%);fill-opacity:1;" d="M 5 13 C 5.660156 13 6.320312 13 7 13 C 7 13.328125 7 13.660156 7 14 C 6.339844 14 5.679688 14 5 14 C 5 13.671875 5 13.339844 5 13 Z M 5 13 "/>
</g>
</svg>
