<?xml version="1.0" encoding="UTF-8"?>
<svg xmlns="http://www.w3.org/2000/svg" xmlns:xlink="http://www.w3.org/1999/xlink" width="16px" height="16px" viewBox="0 0 16 16" version="1.1">
<g id="surface1">
<path style=" stroke:none;fill-rule:nonzero;fill:rgb(65.490198%,82.745099%,17.254902%);fill-opacity:1;" d="M 0 1 C 1.980469 1 3.960938 1 6 1 C 6 1.328125 6 1.660156 6 2 C 8.96875 2 11.941406 2 15 2 C 15 2.328125 15 2.660156 15 3 C 15.328125 3 15.660156 3 16 3 C 16 6.960938 16 10.921875 16 15 C 15.339844 15 14.679688 15 14 15 C 14 14.671875 14 14.339844 14 14 C 13.011719 14 12.019531 14 11 14 C 11 14.328125 11 14.660156 11 15 C 10.011719 15 9.019531 15 8 15 C 8 14.671875 8 14.339844 8 14 C 7.011719 14 6.019531 14 5 14 C 5 14.328125 5 14.660156 5 15 C 4.339844 15 3.679688 15 3 15 C 3 14.671875 3 14.339844 3 14 C 2.011719 14 1.019531 14 0 14 C 0 9.710938 0 5.421875 0 1 Z M 0 1 "/>
<path style=" stroke:none;fill-rule:nonzero;fill:rgb(100%,100%,89.803922%);fill-opacity:1;" d="M 5 4 C 5.988281 4 6.980469 4 8 4 C 8 4.660156 8 5.320312 8 6 C 8.988281 6 9.980469 6 11 6 C 11 5.339844 11 4.679688 11 4 C 11.988281 4 12.980469 4 14 4 C 14 4.328125 14 4.660156 14 5 C 13.339844 5 12.679688 5 12 5 C 12 5.988281 12 6.980469 12 8 C 12.328125 8 12.660156 8 13 8 C 13 8.328125 13 8.660156 13 9 C 13.660156 9 14.320312 9 15 9 C 15 8.671875 15 8.339844 15 8 C 15.328125 8 15.660156 8 16 8 C 16 10.308594 16 12.621094 16 15 C 15.339844 15 14.679688 15 14 15 C 14 14.671875 14 14.339844 14 14 C 13.011719 14 12.019531 14 11 14 C 11 14.328125 11 14.660156 11 15 C 10.011719 15 9.019531 15 8 15 C 8 14.671875 8 14.339844 8 14 C 7.011719 14 6.019531 14 5 14 C 5 14.328125 5 14.660156 5 15 C 4.339844 15 3.679688 15 3 15 C 3 14.671875 3 14.339844 3 14 C 3.328125 14 3.660156 14 4 14 C 4 13.339844 4 12.679688 4 12 C 4.660156 12 5.320312 12 6 12 C 6 11.339844 6 10.679688 6 10 C 5.011719 10 4.019531 10 3 10 C 3 9.339844 3 8.679688 3 8 C 3.328125 8 3.660156 8 4 8 C 4 8.328125 4 8.660156 4 9 C 4.660156 9 5.320312 9 6 9 C 6 8.671875 6 8.339844 6 8 C 6.328125 8 6.660156 8 7 8 C 7 7.011719 7 6.019531 7 5 C 6.339844 5 5.679688 5 5 5 C 5 4.671875 5 4.339844 5 4 Z M 5 4 "/>
<path style=" stroke:none;fill-rule:nonzero;fill:rgb(43.921569%,60.784316%,10.196079%);fill-opacity:1;" d="M 0 1 C 1.980469 1 3.960938 1 6 1 C 6 1.328125 6 1.660156 6 2 C 8.96875 2 11.941406 2 15 2 C 15 2.328125 15 2.660156 15 3 C 10.378906 3 5.761719 3 1 3 C 1 6.628906 1 10.261719 1 14 C 0.671875 14 0.339844 14 0 14 C 0 9.710938 0 5.421875 0 1 Z M 0 1 "/>
<path style=" stroke:none;fill-rule:nonzero;fill:rgb(65.490198%,82.745099%,17.254902%);fill-opacity:1;" d="M 13 10 C 13.988281 10 14.980469 10 16 10 C 16 11.320312 16 12.640625 16 14 C 15.671875 14 15.339844 14 15 14 C 15 13.339844 15 12.679688 15 12 C 14.339844 12 13.679688 12 13 12 C 13 11.339844 13 10.679688 13 10 Z M 13 10 "/>
<path style=" stroke:none;fill-rule:nonzero;fill:rgb(65.490198%,82.745099%,17.254902%);fill-opacity:1;" d="M 8 12 C 8.988281 12 9.980469 12 11 12 C 11 12.328125 11 12.660156 11 13 C 10.671875 13 10.339844 13 10 13 C 10 13.328125 10 13.660156 10 14 C 9.671875 14 9.339844 14 9 14 C 9 13.671875 9 13.339844 9 13 C 8.671875 13 8.339844 13 8 13 C 8 12.671875 8 12.339844 8 12 Z M 8 12 "/>
<path style=" stroke:none;fill-rule:nonzero;fill:rgb(65.490198%,82.745099%,17.254902%);fill-opacity:1;" d="M 9 8 C 9.328125 8 9.660156 8 10 8 C 10 8.328125 10 8.660156 10 9 C 10.328125 9 10.660156 9 11 9 C 11 9.328125 11 9.660156 11 10 C 10.011719 10 9.019531 10 8 10 C 8 9.671875 8 9.339844 8 9 C 8.328125 9 8.660156 9 9 9 C 9 8.671875 9 8.339844 9 8 Z M 9 8 "/>
<path style=" stroke:none;fill-rule:nonzero;fill:rgb(65.490198%,82.745099%,17.254902%);fill-opacity:1;" d="M 12 13 C 12.660156 13 13.320312 13 14 13 C 14 13.328125 14 13.660156 14 14 C 13.339844 14 12.679688 14 12 14 C 12 13.671875 12 13.339844 12 13 Z M 12 13 "/>
<path style=" stroke:none;fill-rule:nonzero;fill:rgb(65.490198%,82.745099%,17.254902%);fill-opacity:1;" d="M 5 13 C 5.660156 13 6.320312 13 7 13 C 7 13.328125 7 13.660156 7 14 C 6.339844 14 5.679688 14 5 14 C 5 13.671875 5 13.339844 5 13 Z M 5 13 "/>
</g>
</svg>
