<svg xmlns="http://www.w3.org/2000/svg" width="512" height="512" viewBox="0 0 512 512">
<rect width="100%" height="100%" fill="none"/>
<g shape-rendering="crispEdges">
  <rect x="48" y="64" width="16" height="16" fill="#d29533" />
  <rect x="64" y="64" width="16" height="16" fill="#d29533" />
  <rect x="80" y="64" width="16" height="16" fill="#d29533" />
  <rect x="96" y="64" width="16" height="16" fill="#d29533" />
  <rect x="112" y="64" width="16" height="16" fill="#d29533" />
  <rect x="128" y="64" width="16" height="16" fill="#d29533" />
  <rect x="144" y="64" width="16" height="16" fill="#d29533" />
  <rect x="160" y="64" width="16" height="16" fill="#d29533" />
  <rect x="176" y="64" width="16" height="16" fill="#d29533" />
  <rect x="32" y="80" width="16" height="16" fill="#d29533" />
  <rect x="48" y="80" width="16" height="16" fill="#d29533" />
  <rect x="64" y="80" width="16" height="16" fill="#d29533" />
  <rect x="80" y="80" width="16" height="16" fill="#d29533" />
  <rect x="96" y="80" width="16" height="16" fill="#d29533" />
  <rect x="112" y="80" width="16" height="16" fill="#d29533" />
  <rect x="128" y="80" width="16" height="16" fill="#d29533" />
  <rect x="144" y="80" width="16" height="16" fill="#d29533" />
  <rect x="160" y="80" width="16" height="16" fill="#d29533" />
  <rect x="176" y="80" width="16" height="16" fill="#d29533" />
  <rect x="192" y="80" width="16" height="16" fill="#d29533" />
  <rect x="208" y="80" width="16" height="16" fill="#d29533" />
  <rect x="32" y="96" width="16" height="16" fill="#d29533" />
  <rect x="48" y="96" width="16" height="16" fill="#d29533" />
  <rect x="64" y="96" width="16" height="16" fill="#d29533" />
  <rect x="80" y="96" width="16" height="16" fill="#d29533" />
  <rect x="96" y="96" width="16" height="16" fill="#d29533" />
  <rect x="112" y="96" width="16" height="16" fill="#d29533" />
  <rect x="128" y="96" width="16" height="16" fill="#d29533" />
  <rect x="144" y="96" width="16" height="16" fill="#d29533" />
  <rect x="160" y="96" width="16" height="16" fill="#d29533" />
  <rect x="176" y="96" width="16" height="16" fill="#d29533" />
  <rect x="192" y="96" width="16" height="16" fill="#d29533" />
  <rect x="208" y="96" width="16" height="16" fill="#d29533" />
  <rect x="224" y="96" width="16" height="16" fill="#d29533" />
  <rect x="32" y="112" width="16" height="16" fill="#d29533" />
  <rect x="48" y="112" width="16" height="16" fill="#d29533" />
  <rect x="64" y="112" width="16" height="16" fill="#d29533" />
  <rect x="80" y="112" width="16" height="16" fill="#d29533" />
  <rect x="96" y="112" width="16" height="16" fill="#d29533" />
  <rect x="112" y="112" width="16" height="16" fill="#d29533" />
  <rect x="128" y="112" width="16" height="16" fill="#d29533" />
  <rect x="144" y="112" width="16" height="16" fill="#d29533" />
  <rect x="160" y="112" width="16" height="16" fill="#d29533" />
  <rect x="176" y="112" width="16" height="16" fill="#d29533" />
  <rect x="192" y="112" width="16" height="16" fill="#d29533" />
  <rect x="208" y="112" width="16" height="16" fill="#d29533" />
  <rect x="224" y="112" width="16" height="16" fill="#d29533" />
  <rect x="240" y="112" width="16" height="16" fill="#d29533" />
  <rect x="256" y="112" width="16" height="16" fill="#d29533" />
  <rect x="272" y="112" width="16" height="16" fill="#d29533" />
  <rect x="288" y="112" width="16" height="16" fill="#d29533" />
  <rect x="304" y="112" width="16" height="16" fill="#d29533" />
  <rect x="320" y="112" width="16" height="16" fill="#d29533" />
  <rect x="336" y="112" width="16" height="16" fill="#d29533" />
  <rect x="352" y="112" width="16" height="16" fill="#d29533" />
  <rect x="368" y="112" width="16" height="16" fill="#d29533" />
  <rect x="384" y="112" width="16" height="16" fill="#d29533" />
  <rect x="400" y="112" width="16" height="16" fill="#d29533" />
  <rect x="416" y="112" width="16" height="16" fill="#d29533" />
  <rect x="432" y="112" width="16" height="16" fill="#d29533" />
  <rect x="32" y="128" width="16" height="16" fill="#d29533" />
  <rect x="48" y="128" width="16" height="16" fill="#d29533" />
  <rect x="64" y="128" width="16" height="16" fill="#d29533" />
  <rect x="80" y="128" width="16" height="16" fill="#d29533" />
  <rect x="96" y="128" width="16" height="16" fill="#d29533" />
  <rect x="112" y="128" width="16" height="16" fill="#d29533" />
  <rect x="128" y="128" width="16" height="16" fill="#d29533" />
  <rect x="144" y="128" width="16" height="16" fill="#d29533" />
  <rect x="160" y="128" width="16" height="16" fill="#d29533" />
  <rect x="176" y="128" width="16" height="16" fill="#d29533" />
  <rect x="192" y="128" width="16" height="16" fill="#d29533" />
  <rect x="208" y="128" width="16" height="16" fill="#d29533" />
  <rect x="224" y="128" width="16" height="16" fill="#d29533" />
  <rect x="240" y="128" width="16" height="16" fill="#d29533" />
  <rect x="256" y="128" width="16" height="16" fill="#d29533" />
  <rect x="272" y="128" width="16" height="16" fill="#d29533" />
  <rect x="288" y="128" width="16" height="16" fill="#d29533" />
  <rect x="304" y="128" width="16" height="16" fill="#d29533" />
  <rect x="320" y="128" width="16" height="16" fill="#d29533" />
  <rect x="336" y="128" width="16" height="16" fill="#d29533" />
  <rect x="352" y="128" width="16" height="16" fill="#d29533" />
  <rect x="368" y="128" width="16" height="16" fill="#d29533" />
  <rect x="384" y="128" width="16" height="16" fill="#d29533" />
  <rect x="400" y="128" width="16" height="16" fill="#d29533" />
  <rect x="416" y="128" width="16" height="16" fill="#d29533" />
  <rect x="432" y="128" width="16" height="16" fill="#d29533" />
  <rect x="448" y="128" width="16" height="16" fill="#d29533" />
  <rect x="32" y="144" width="16" height="16" fill="#d29533" />
  <rect x="48" y="144" width="16" height="16" fill="#d29533" />
  <rect x="64" y="144" width="16" height="16" fill="#ebae4b" />
  <rect x="80" y="144" width="16" height="16" fill="#ebae4b" />
  <rect x="96" y="144" width="16" height="16" fill="#ebae4b" />
  <rect x="112" y="144" width="16" height="16" fill="#ebae4b" />
  <rect x="128" y="144" width="16" height="16" fill="#ebae4b" />
  <rect x="144" y="144" width="16" height="16" fill="#ebae4b" />
  <rect x="160" y="144" width="16" height="16" fill="#ebae4b" />
  <rect x="176" y="144" width="16" height="16" fill="#ebae4b" />
  <rect x="192" y="144" width="16" height="16" fill="#ebae4b" />
  <rect x="208" y="144" width="16" height="16" fill="#ebae4b" />
  <rect x="224" y="144" width="16" height="16" fill="#ebae4b" />
  <rect x="240" y="144" width="16" height="16" fill="#ebae4b" />
  <rect x="256" y="144" width="16" height="16" fill="#ebae4b" />
  <rect x="272" y="144" width="16" height="16" fill="#ebae4b" />
  <rect x="288" y="144" width="16" height="16" fill="#ebae4b" />
  <rect x="304" y="144" width="16" height="16" fill="#ebae4b" />
  <rect x="320" y="144" width="16" height="16" fill="#ebae4b" />
  <rect x="336" y="144" width="16" height="16" fill="#ebae4b" />
  <rect x="352" y="144" width="16" height="16" fill="#ebae4b" />
  <rect x="368" y="144" width="16" height="16" fill="#ebae4b" />
  <rect x="384" y="144" width="16" height="16" fill="#ebae4b" />
  <rect x="400" y="144" width="16" height="16" fill="#ebae4b" />
  <rect x="416" y="144" width="16" height="16" fill="#ebae4b" />
  <rect x="432" y="144" width="16" height="16" fill="#ebae4b" />
  <rect x="448" y="144" width="16" height="16" fill="#ebae4b" />
  <rect x="32" y="160" width="16" height="16" fill="#d29533" />
  <rect x="48" y="160" width="16" height="16" fill="#ebae4b" />
  <rect x="64" y="160" width="16" height="16" fill="#ebae4b" />
  <rect x="80" y="160" width="16" height="16" fill="#ebae4b" />
  <rect x="96" y="160" width="16" height="16" fill="#ebae4b" />
  <rect x="112" y="160" width="16" height="16" fill="#ebae4b" />
  <rect x="128" y="160" width="16" height="16" fill="#ebae4b" />
  <rect x="144" y="160" width="16" height="16" fill="#ebae4b" />
  <rect x="160" y="160" width="16" height="16" fill="#ebae4b" />
  <rect x="176" y="160" width="16" height="16" fill="#ebae4b" />
  <rect x="192" y="160" width="16" height="16" fill="#ebae4b" />
  <rect x="208" y="160" width="16" height="16" fill="#ebae4b" />
  <rect x="224" y="160" width="16" height="16" fill="#ebae4b" />
  <rect x="240" y="160" width="16" height="16" fill="#ebae4b" />
  <rect x="256" y="160" width="16" height="16" fill="#ebae4b" />
  <rect x="272" y="160" width="16" height="16" fill="#ebae4b" />
  <rect x="288" y="160" width="16" height="16" fill="#ebae4b" />
  <rect x="304" y="160" width="16" height="16" fill="#ebae4b" />
  <rect x="320" y="160" width="16" height="16" fill="#ebae4b" />
  <rect x="336" y="160" width="16" height="16" fill="#ebae4b" />
  <rect x="352" y="160" width="16" height="16" fill="#ebae4b" />
  <rect x="368" y="160" width="16" height="16" fill="#ebae4b" />
  <rect x="384" y="160" width="16" height="16" fill="#ebae4b" />
  <rect x="400" y="160" width="16" height="16" fill="#ebae4b" />
  <rect x="416" y="160" width="16" height="16" fill="#ebae4b" />
  <rect x="432" y="160" width="16" height="16" fill="#ebae4b" />
  <rect x="448" y="160" width="16" height="16" fill="#ebae4b" />
  <rect x="464" y="160" width="16" height="16" fill="#ebae4b" />
  <rect x="32" y="176" width="16" height="16" fill="#d29533" />
  <rect x="48" y="176" width="16" height="16" fill="#ebae4b" />
  <rect x="64" y="176" width="16" height="16" fill="#ebae4b" />
  <rect x="80" y="176" width="16" height="16" fill="#ebae4b" />
  <rect x="96" y="176" width="16" height="16" fill="#ebae4b" />
  <rect x="112" y="176" width="16" height="16" fill="#ebae4b" />
  <rect x="128" y="176" width="16" height="16" fill="#ebae4b" />
  <rect x="144" y="176" width="16" height="16" fill="#ebae4b" />
  <rect x="160" y="176" width="16" height="16" fill="#ebae4b" />
  <rect x="176" y="176" width="16" height="16" fill="#ebae4b" />
  <rect x="192" y="176" width="16" height="16" fill="#ebae4b" />
  <rect x="208" y="176" width="16" height="16" fill="#ebae4b" />
  <rect x="224" y="176" width="16" height="16" fill="#ebae4b" />
  <rect x="240" y="176" width="16" height="16" fill="#ebae4b" />
  <rect x="256" y="176" width="16" height="16" fill="#ebae4b" />
  <rect x="272" y="176" width="16" height="16" fill="#ebae4b" />
  <rect x="288" y="176" width="16" height="16" fill="#ebae4b" />
  <rect x="304" y="176" width="16" height="16" fill="#ebae4b" />
  <rect x="320" y="176" width="16" height="16" fill="#ebae4b" />
  <rect x="336" y="176" width="16" height="16" fill="#ebae4b" />
  <rect x="352" y="176" width="16" height="16" fill="#ebae4b" />
  <rect x="368" y="176" width="16" height="16" fill="#ebae4b" />
  <rect x="384" y="176" width="16" height="16" fill="#ebae4b" />
  <rect x="400" y="176" width="16" height="16" fill="#ebae4b" />
  <rect x="416" y="176" width="16" height="16" fill="#ebae4b" />
  <rect x="432" y="176" width="16" height="16" fill="#ebae4b" />
  <rect x="448" y="176" width="16" height="16" fill="#ebae4b" />
  <rect x="464" y="176" width="16" height="16" fill="#ebae4b" />
  <rect x="32" y="192" width="16" height="16" fill="#d29533" />
  <rect x="48" y="192" width="16" height="16" fill="#ebae4b" />
  <rect x="64" y="192" width="16" height="16" fill="#ebae4b" />
  <rect x="80" y="192" width="16" height="16" fill="#ebae4b" />
  <rect x="96" y="192" width="16" height="16" fill="#ebae4b" />
  <rect x="112" y="192" width="16" height="16" fill="#ebae4b" />
  <rect x="128" y="192" width="16" height="16" fill="#ebae4b" />
  <rect x="144" y="192" width="16" height="16" fill="#ebae4b" />
  <rect x="160" y="192" width="16" height="16" fill="#ebae4b" />
  <rect x="176" y="192" width="16" height="16" fill="#ebae4b" />
  <rect x="192" y="192" width="16" height="16" fill="#ebae4b" />
  <rect x="208" y="192" width="16" height="16" fill="#ebae4b" />
  <rect x="224" y="192" width="16" height="16" fill="#ebae4b" />
  <rect x="240" y="192" width="16" height="16" fill="#ebae4b" />
  <rect x="256" y="192" width="16" height="16" fill="#ebae4b" />
  <rect x="272" y="192" width="16" height="16" fill="#ebae4b" />
  <rect x="288" y="192" width="16" height="16" fill="#ebae4b" />
  <rect x="304" y="192" width="16" height="16" fill="#ebae4b" />
  <rect x="320" y="192" width="16" height="16" fill="#ebae4b" />
  <rect x="336" y="192" width="16" height="16" fill="#ebae4b" />
  <rect x="352" y="192" width="16" height="16" fill="#ebae4b" />
  <rect x="368" y="192" width="16" height="16" fill="#ebae4b" />
  <rect x="384" y="192" width="16" height="16" fill="#ebae4b" />
  <rect x="400" y="192" width="16" height="16" fill="#ebae4b" />
  <rect x="416" y="192" width="16" height="16" fill="#ebae4b" />
  <rect x="432" y="192" width="16" height="16" fill="#ebae4b" />
  <rect x="448" y="192" width="16" height="16" fill="#ebae4b" />
  <rect x="464" y="192" width="16" height="16" fill="#ebae4b" />
  <rect x="32" y="208" width="16" height="16" fill="#d29533" />
  <rect x="48" y="208" width="16" height="16" fill="#ebae4b" />
  <rect x="64" y="208" width="16" height="16" fill="#ebae4b" />
  <rect x="80" y="208" width="16" height="16" fill="#ebae4b" />
  <rect x="96" y="208" width="16" height="16" fill="#ebae4b" />
  <rect x="112" y="208" width="16" height="16" fill="#ebae4b" />
  <rect x="128" y="208" width="16" height="16" fill="#ebae4b" />
  <rect x="144" y="208" width="16" height="16" fill="#ebae4b" />
  <rect x="160" y="208" width="16" height="16" fill="#ebae4b" />
  <rect x="176" y="208" width="16" height="16" fill="#ebae4b" />
  <rect x="192" y="208" width="16" height="16" fill="#ebae4b" />
  <rect x="208" y="208" width="16" height="16" fill="#ebae4b" />
  <rect x="224" y="208" width="16" height="16" fill="#ebae4b" />
  <rect x="240" y="208" width="16" height="16" fill="#ebae4b" />
  <rect x="256" y="208" width="16" height="16" fill="#ebae4b" />
  <rect x="272" y="208" width="16" height="16" fill="#ebae4b" />
  <rect x="288" y="208" width="16" height="16" fill="#ebae4b" />
  <rect x="304" y="208" width="16" height="16" fill="#ebae4b" />
  <rect x="320" y="208" width="16" height="16" fill="#ebae4b" />
  <rect x="336" y="208" width="16" height="16" fill="#ebae4b" />
  <rect x="352" y="208" width="16" height="16" fill="#ebae4b" />
  <rect x="368" y="208" width="16" height="16" fill="#ebae4b" />
  <rect x="384" y="208" width="16" height="16" fill="#ebae4b" />
  <rect x="400" y="208" width="16" height="16" fill="#ebae4b" />
  <rect x="416" y="208" width="16" height="16" fill="#ebae4b" />
  <rect x="432" y="208" width="16" height="16" fill="#ebae4b" />
  <rect x="448" y="208" width="16" height="16" fill="#ebae4b" />
  <rect x="464" y="208" width="16" height="16" fill="#ebae4b" />
  <rect x="32" y="224" width="16" height="16" fill="#d29533" />
  <rect x="48" y="224" width="16" height="16" fill="#ebae4b" />
  <rect x="64" y="224" width="16" height="16" fill="#ebae4b" />
  <rect x="80" y="224" width="16" height="16" fill="#ebae4b" />
  <rect x="96" y="224" width="16" height="16" fill="#ebae4b" />
  <rect x="112" y="224" width="16" height="16" fill="#ebae4b" />
  <rect x="128" y="224" width="16" height="16" fill="#ebae4b" />
  <rect x="144" y="224" width="16" height="16" fill="#ebae4b" />
  <rect x="160" y="224" width="16" height="16" fill="#ebae4b" />
  <rect x="176" y="224" width="16" height="16" fill="#ebae4b" />
  <rect x="192" y="224" width="16" height="16" fill="#ebae4b" />
  <rect x="208" y="224" width="16" height="16" fill="#ebae4b" />
  <rect x="224" y="224" width="16" height="16" fill="#ebae4b" />
  <rect x="240" y="224" width="16" height="16" fill="#ebae4b" />
  <rect x="256" y="224" width="16" height="16" fill="#ebae4b" />
  <rect x="272" y="224" width="16" height="16" fill="#ebae4b" />
  <rect x="288" y="224" width="16" height="16" fill="#ebae4b" />
  <rect x="304" y="224" width="16" height="16" fill="#ebae4b" />
  <rect x="320" y="224" width="16" height="16" fill="#ebae4b" />
  <rect x="336" y="224" width="16" height="16" fill="#ebae4b" />
  <rect x="352" y="224" width="16" height="16" fill="#ebae4b" />
  <rect x="368" y="224" width="16" height="16" fill="#ebae4b" />
  <rect x="384" y="224" width="16" height="16" fill="#ebae4b" />
  <rect x="400" y="224" width="16" height="16" fill="#ebae4b" />
  <rect x="416" y="224" width="16" height="16" fill="#ebae4b" />
  <rect x="432" y="224" width="16" height="16" fill="#ebae4b" />
  <rect x="448" y="224" width="16" height="16" fill="#ebae4b" />
  <rect x="464" y="224" width="16" height="16" fill="#ebae4b" />
  <rect x="32" y="240" width="16" height="16" fill="#d29533" />
  <rect x="48" y="240" width="16" height="16" fill="#ebae4b" />
  <rect x="64" y="240" width="16" height="16" fill="#ebae4b" />
  <rect x="80" y="240" width="16" height="16" fill="#ebae4b" />
  <rect x="96" y="240" width="16" height="16" fill="#ebae4b" />
  <rect x="112" y="240" width="16" height="16" fill="#ebae4b" />
  <rect x="128" y="240" width="16" height="16" fill="#ebae4b" />
  <rect x="144" y="240" width="16" height="16" fill="#ebae4b" />
  <rect x="160" y="240" width="16" height="16" fill="#ebae4b" />
  <rect x="176" y="240" width="16" height="16" fill="#ebae4b" />
  <rect x="192" y="240" width="16" height="16" fill="#ebae4b" />
  <rect x="208" y="240" width="16" height="16" fill="#ebae4b" />
  <rect x="224" y="240" width="16" height="16" fill="#ebae4b" />
  <rect x="240" y="240" width="16" height="16" fill="#ebae4b" />
  <rect x="256" y="240" width="16" height="16" fill="#ebae4b" />
  <rect x="272" y="240" width="16" height="16" fill="#ebae4b" />
  <rect x="288" y="240" width="16" height="16" fill="#ebae4b" />
  <rect x="304" y="240" width="16" height="16" fill="#ebae4b" />
  <rect x="320" y="240" width="16" height="16" fill="#ebae4b" />
  <rect x="336" y="240" width="16" height="16" fill="#ebae4b" />
  <rect x="352" y="240" width="16" height="16" fill="#ebae4b" />
  <rect x="368" y="240" width="16" height="16" fill="#ebae4b" />
  <rect x="384" y="240" width="16" height="16" fill="#ebae4b" />
  <rect x="400" y="240" width="16" height="16" fill="#ebae4b" />
  <rect x="416" y="240" width="16" height="16" fill="#ebae4b" />
  <rect x="432" y="240" width="16" height="16" fill="#ebae4b" />
  <rect x="448" y="240" width="16" height="16" fill="#ebae4b" />
  <rect x="464" y="240" width="16" height="16" fill="#ebae4b" />
  <rect x="32" y="256" width="16" height="16" fill="#d29533" />
  <rect x="48" y="256" width="16" height="16" fill="#ebae4b" />
  <rect x="64" y="256" width="16" height="16" fill="#ebae4b" />
  <rect x="80" y="256" width="16" height="16" fill="#ebae4b" />
  <rect x="96" y="256" width="16" height="16" fill="#ebae4b" />
  <rect x="112" y="256" width="16" height="16" fill="#ebae4b" />
  <rect x="128" y="256" width="16" height="16" fill="#ebae4b" />
  <rect x="144" y="256" width="16" height="16" fill="#ebae4b" />
  <rect x="160" y="256" width="16" height="16" fill="#ebae4b" />
  <rect x="176" y="256" width="16" height="16" fill="#ebae4b" />
  <rect x="192" y="256" width="16" height="16" fill="#ebae4b" />
  <rect x="208" y="256" width="16" height="16" fill="#ebae4b" />
  <rect x="224" y="256" width="16" height="16" fill="#ebae4b" />
  <rect x="240" y="256" width="16" height="16" fill="#ebae4b" />
  <rect x="256" y="256" width="16" height="16" fill="#ebae4b" />
  <rect x="272" y="256" width="16" height="16" fill="#ebae4b" />
  <rect x="288" y="256" width="16" height="16" fill="#ebae4b" />
  <rect x="304" y="256" width="16" height="16" fill="#ebae4b" />
  <rect x="320" y="256" width="16" height="16" fill="#ebae4b" />
  <rect x="336" y="256" width="16" height="16" fill="#ebae4b" />
  <rect x="352" y="256" width="16" height="16" fill="#ebae4b" />
  <rect x="368" y="256" width="16" height="16" fill="#ebae4b" />
  <rect x="384" y="256" width="16" height="16" fill="#ebae4b" />
  <rect x="400" y="256" width="16" height="16" fill="#ebae4b" />
  <rect x="416" y="256" width="16" height="16" fill="#ebae4b" />
  <rect x="432" y="256" width="16" height="16" fill="#ebae4b" />
  <rect x="448" y="256" width="16" height="16" fill="#ebae4b" />
  <rect x="464" y="256" width="16" height="16" fill="#ebae4b" />
  <rect x="32" y="272" width="16" height="16" fill="#d29533" />
  <rect x="48" y="272" width="16" height="16" fill="#ebae4b" />
  <rect x="64" y="272" width="16" height="16" fill="#ebae4b" />
  <rect x="80" y="272" width="16" height="16" fill="#ebae4b" />
  <rect x="96" y="272" width="16" height="16" fill="#ebae4b" />
  <rect x="112" y="272" width="16" height="16" fill="#ebae4b" />
  <rect x="128" y="272" width="16" height="16" fill="#ebae4b" />
  <rect x="144" y="272" width="16" height="16" fill="#ebae4b" />
  <rect x="160" y="272" width="16" height="16" fill="#ebae4b" />
  <rect x="176" y="272" width="16" height="16" fill="#ebae4b" />
  <rect x="192" y="272" width="16" height="16" fill="#ebae4b" />
  <rect x="208" y="272" width="16" height="16" fill="#ebae4b" />
  <rect x="224" y="272" width="16" height="16" fill="#ebae4b" />
  <rect x="240" y="272" width="16" height="16" fill="#ebae4b" />
  <rect x="256" y="272" width="16" height="16" fill="#ebae4b" />
  <rect x="272" y="272" width="16" height="16" fill="#ebae4b" />
  <rect x="288" y="272" width="16" height="16" fill="#ebae4b" />
  <rect x="304" y="272" width="16" height="16" fill="#ebae4b" />
  <rect x="320" y="272" width="16" height="16" fill="#ebae4b" />
  <rect x="336" y="272" width="16" height="16" fill="#ebae4b" />
  <rect x="352" y="272" width="16" height="16" fill="#ebae4b" />
  <rect x="368" y="272" width="16" height="16" fill="#ebae4b" />
  <rect x="384" y="272" width="16" height="16" fill="#ebae4b" />
  <rect x="400" y="272" width="16" height="16" fill="#ebae4b" />
  <rect x="416" y="272" width="16" height="16" fill="#ebae4b" />
  <rect x="432" y="272" width="16" height="16" fill="#ebae4b" />
  <rect x="448" y="272" width="16" height="16" fill="#ebae4b" />
  <rect x="464" y="272" width="16" height="16" fill="#ebae4b" />
  <rect x="32" y="288" width="16" height="16" fill="#d29533" />
  <rect x="48" y="288" width="16" height="16" fill="#ebae4b" />
  <rect x="64" y="288" width="16" height="16" fill="#ebae4b" />
  <rect x="80" y="288" width="16" height="16" fill="#ebae4b" />
  <rect x="96" y="288" width="16" height="16" fill="#ebae4b" />
  <rect x="112" y="288" width="16" height="16" fill="#ebae4b" />
  <rect x="128" y="288" width="16" height="16" fill="#ebae4b" />
  <rect x="144" y="288" width="16" height="16" fill="#ebae4b" />
  <rect x="160" y="288" width="16" height="16" fill="#ebae4b" />
  <rect x="176" y="288" width="16" height="16" fill="#ebae4b" />
  <rect x="192" y="288" width="16" height="16" fill="#ebae4b" />
  <rect x="208" y="288" width="16" height="16" fill="#ebae4b" />
  <rect x="224" y="288" width="16" height="16" fill="#ebae4b" />
  <rect x="240" y="288" width="16" height="16" fill="#ebae4b" />
  <rect x="256" y="288" width="16" height="16" fill="#ebae4b" />
  <rect x="272" y="288" width="16" height="16" fill="#ebae4b" />
  <rect x="288" y="288" width="16" height="16" fill="#ebae4b" />
  <rect x="304" y="288" width="16" height="16" fill="#ebae4b" />
  <rect x="320" y="288" width="16" height="16" fill="#ebae4b" />
  <rect x="336" y="288" width="16" height="16" fill="#ebae4b" />
  <rect x="352" y="288" width="16" height="16" fill="#ebae4b" />
  <rect x="368" y="288" width="16" height="16" fill="#ebae4b" />
  <rect x="384" y="288" width="16" height="16" fill="#ebae4b" />
  <rect x="400" y="288" width="16" height="16" fill="#ebae4b" />
  <rect x="416" y="288" width="16" height="16" fill="#ebae4b" />
  <rect x="432" y="288" width="16" height="16" fill="#ebae4b" />
  <rect x="448" y="288" width="16" height="16" fill="#ebae4b" />
  <rect x="464" y="288" width="16" height="16" fill="#ebae4b" />
  <rect x="32" y="304" width="16" height="16" fill="#d29533" />
  <rect x="48" y="304" width="16" height="16" fill="#ebae4b" />
  <rect x="64" y="304" width="16" height="16" fill="#ebae4b" />
  <rect x="80" y="304" width="16" height="16" fill="#ebae4b" />
  <rect x="96" y="304" width="16" height="16" fill="#ebae4b" />
  <rect x="112" y="304" width="16" height="16" fill="#ebae4b" />
  <rect x="128" y="304" width="16" height="16" fill="#ebae4b" />
  <rect x="144" y="304" width="16" height="16" fill="#ebae4b" />
  <rect x="160" y="304" width="16" height="16" fill="#ebae4b" />
  <rect x="176" y="304" width="16" height="16" fill="#ebae4b" />
  <rect x="192" y="304" width="16" height="16" fill="#ebae4b" />
  <rect x="208" y="304" width="16" height="16" fill="#ebae4b" />
  <rect x="224" y="304" width="16" height="16" fill="#ebae4b" />
  <rect x="240" y="304" width="16" height="16" fill="#ebae4b" />
  <rect x="256" y="304" width="16" height="16" fill="#ebae4b" />
  <rect x="272" y="304" width="16" height="16" fill="#ebae4b" />
  <rect x="288" y="304" width="16" height="16" fill="#ebae4b" />
  <rect x="304" y="304" width="16" height="16" fill="#ebae4b" />
  <rect x="320" y="304" width="16" height="16" fill="#ebae4b" />
  <rect x="336" y="304" width="16" height="16" fill="#ebae4b" />
  <rect x="352" y="304" width="16" height="16" fill="#ebae4b" />
  <rect x="368" y="304" width="16" height="16" fill="#ebae4b" />
  <rect x="384" y="304" width="16" height="16" fill="#ebae4b" />
  <rect x="400" y="304" width="16" height="16" fill="#ebae4b" />
  <rect x="416" y="304" width="16" height="16" fill="#ebae4b" />
  <rect x="432" y="304" width="16" height="16" fill="#ebae4b" />
  <rect x="448" y="304" width="16" height="16" fill="#ebae4b" />
  <rect x="464" y="304" width="16" height="16" fill="#ebae4b" />
  <rect x="32" y="320" width="16" height="16" fill="#d29533" />
  <rect x="48" y="320" width="16" height="16" fill="#ebae4b" />
  <rect x="64" y="320" width="16" height="16" fill="#ebae4b" />
  <rect x="80" y="320" width="16" height="16" fill="#ebae4b" />
  <rect x="96" y="320" width="16" height="16" fill="#ebae4b" />
  <rect x="112" y="320" width="16" height="16" fill="#ebae4b" />
  <rect x="128" y="320" width="16" height="16" fill="#ebae4b" />
  <rect x="144" y="320" width="16" height="16" fill="#ebae4b" />
  <rect x="160" y="320" width="16" height="16" fill="#ebae4b" />
  <rect x="176" y="320" width="16" height="16" fill="#ebae4b" />
  <rect x="192" y="320" width="16" height="16" fill="#ebae4b" />
  <rect x="208" y="320" width="16" height="16" fill="#ebae4b" />
  <rect x="224" y="320" width="16" height="16" fill="#ebae4b" />
  <rect x="240" y="320" width="16" height="16" fill="#ebae4b" />
  <rect x="256" y="320" width="16" height="16" fill="#ebae4b" />
  <rect x="272" y="320" width="16" height="16" fill="#ebae4b" />
  <rect x="288" y="320" width="16" height="16" fill="#ebae4b" />
  <rect x="304" y="320" width="16" height="16" fill="#ebae4b" />
  <rect x="320" y="320" width="16" height="16" fill="#ebae4b" />
  <rect x="336" y="320" width="16" height="16" fill="#ebae4b" />
  <rect x="352" y="320" width="16" height="16" fill="#ebae4b" />
  <rect x="368" y="320" width="16" height="16" fill="#ebae4b" />
  <rect x="384" y="320" width="16" height="16" fill="#ebae4b" />
  <rect x="400" y="320" width="16" height="16" fill="#ebae4b" />
  <rect x="416" y="320" width="16" height="16" fill="#ebae4b" />
  <rect x="432" y="320" width="16" height="16" fill="#ebae4b" />
  <rect x="448" y="320" width="16" height="16" fill="#ebae4b" />
  <rect x="464" y="320" width="16" height="16" fill="#ebae4b" />
  <rect x="32" y="336" width="16" height="16" fill="#d29533" />
  <rect x="48" y="336" width="16" height="16" fill="#ebae4b" />
  <rect x="64" y="336" width="16" height="16" fill="#ebae4b" />
  <rect x="80" y="336" width="16" height="16" fill="#ebae4b" />
  <rect x="96" y="336" width="16" height="16" fill="#ebae4b" />
  <rect x="112" y="336" width="16" height="16" fill="#ebae4b" />
  <rect x="128" y="336" width="16" height="16" fill="#ebae4b" />
  <rect x="144" y="336" width="16" height="16" fill="#ebae4b" />
  <rect x="160" y="336" width="16" height="16" fill="#ebae4b" />
  <rect x="176" y="336" width="16" height="16" fill="#ebae4b" />
  <rect x="192" y="336" width="16" height="16" fill="#ebae4b" />
  <rect x="208" y="336" width="16" height="16" fill="#ebae4b" />
  <rect x="224" y="336" width="16" height="16" fill="#ebae4b" />
  <rect x="240" y="336" width="16" height="16" fill="#ebae4b" />
  <rect x="256" y="336" width="16" height="16" fill="#ebae4b" />
  <rect x="272" y="336" width="16" height="16" fill="#ebae4b" />
  <rect x="288" y="336" width="16" height="16" fill="#ebae4b" />
  <rect x="304" y="336" width="16" height="16" fill="#ebae4b" />
  <rect x="320" y="336" width="16" height="16" fill="#ebae4b" />
  <rect x="336" y="336" width="16" height="16" fill="#ebae4b" />
  <rect x="352" y="336" width="16" height="16" fill="#ebae4b" />
  <rect x="368" y="336" width="16" height="16" fill="#ebae4b" />
  <rect x="384" y="336" width="16" height="16" fill="#ebae4b" />
  <rect x="400" y="336" width="16" height="16" fill="#ebae4b" />
  <rect x="416" y="336" width="16" height="16" fill="#ebae4b" />
  <rect x="432" y="336" width="16" height="16" fill="#ebae4b" />
  <rect x="448" y="336" width="16" height="16" fill="#ebae4b" />
  <rect x="464" y="336" width="16" height="16" fill="#ebae4b" />
  <rect x="32" y="352" width="16" height="16" fill="#d29533" />
  <rect x="48" y="352" width="16" height="16" fill="#ebae4b" />
  <rect x="64" y="352" width="16" height="16" fill="#ebae4b" />
  <rect x="80" y="352" width="16" height="16" fill="#ebae4b" />
  <rect x="96" y="352" width="16" height="16" fill="#ebae4b" />
  <rect x="112" y="352" width="16" height="16" fill="#ebae4b" />
  <rect x="128" y="352" width="16" height="16" fill="#ebae4b" />
  <rect x="144" y="352" width="16" height="16" fill="#ebae4b" />
  <rect x="160" y="352" width="16" height="16" fill="#ebae4b" />
  <rect x="176" y="352" width="16" height="16" fill="#ebae4b" />
  <rect x="192" y="352" width="16" height="16" fill="#ebae4b" />
  <rect x="208" y="352" width="16" height="16" fill="#ebae4b" />
  <rect x="224" y="352" width="16" height="16" fill="#ebae4b" />
  <rect x="240" y="352" width="16" height="16" fill="#ebae4b" />
  <rect x="256" y="352" width="16" height="16" fill="#ebae4b" />
  <rect x="272" y="352" width="16" height="16" fill="#ebae4b" />
  <rect x="288" y="352" width="16" height="16" fill="#ebae4b" />
  <rect x="304" y="352" width="16" height="16" fill="#ebae4b" />
  <rect x="320" y="352" width="16" height="16" fill="#ebae4b" />
  <rect x="336" y="352" width="16" height="16" fill="#ebae4b" />
  <rect x="352" y="352" width="16" height="16" fill="#ebae4b" />
  <rect x="368" y="352" width="16" height="16" fill="#ebae4b" />
  <rect x="384" y="352" width="16" height="16" fill="#ebae4b" />
  <rect x="400" y="352" width="16" height="16" fill="#ebae4b" />
  <rect x="416" y="352" width="16" height="16" fill="#ebae4b" />
  <rect x="432" y="352" width="16" height="16" fill="#ebae4b" />
  <rect x="448" y="352" width="16" height="16" fill="#ebae4b" />
  <rect x="464" y="352" width="16" height="16" fill="#ebae4b" />
  <rect x="32" y="368" width="16" height="16" fill="#d29533" />
  <rect x="48" y="368" width="16" height="16" fill="#ebae4b" />
  <rect x="64" y="368" width="16" height="16" fill="#ebae4b" />
  <rect x="80" y="368" width="16" height="16" fill="#ebae4b" />
  <rect x="96" y="368" width="16" height="16" fill="#ebae4b" />
  <rect x="112" y="368" width="16" height="16" fill="#ebae4b" />
  <rect x="128" y="368" width="16" height="16" fill="#ebae4b" />
  <rect x="144" y="368" width="16" height="16" fill="#ebae4b" />
  <rect x="160" y="368" width="16" height="16" fill="#ebae4b" />
  <rect x="176" y="368" width="16" height="16" fill="#ebae4b" />
  <rect x="192" y="368" width="16" height="16" fill="#ebae4b" />
  <rect x="208" y="368" width="16" height="16" fill="#ebae4b" />
  <rect x="224" y="368" width="16" height="16" fill="#ebae4b" />
  <rect x="240" y="368" width="16" height="16" fill="#ebae4b" />
  <rect x="256" y="368" width="16" height="16" fill="#ebae4b" />
  <rect x="272" y="368" width="16" height="16" fill="#ebae4b" />
  <rect x="288" y="368" width="16" height="16" fill="#ebae4b" />
  <rect x="304" y="368" width="16" height="16" fill="#ebae4b" />
  <rect x="320" y="368" width="16" height="16" fill="#ebae4b" />
  <rect x="336" y="368" width="16" height="16" fill="#ebae4b" />
  <rect x="352" y="368" width="16" height="16" fill="#ebae4b" />
  <rect x="368" y="368" width="16" height="16" fill="#ebae4b" />
  <rect x="384" y="368" width="16" height="16" fill="#ebae4b" />
  <rect x="400" y="368" width="16" height="16" fill="#ebae4b" />
  <rect x="416" y="368" width="16" height="16" fill="#ebae4b" />
  <rect x="432" y="368" width="16" height="16" fill="#ebae4b" />
  <rect x="448" y="368" width="16" height="16" fill="#ebae4b" />
  <rect x="464" y="368" width="16" height="16" fill="#ebae4b" />
  <rect x="32" y="384" width="16" height="16" fill="#d29533" />
  <rect x="48" y="384" width="16" height="16" fill="#ebae4b" />
  <rect x="64" y="384" width="16" height="16" fill="#ebae4b" />
  <rect x="80" y="384" width="16" height="16" fill="#ebae4b" />
  <rect x="96" y="384" width="16" height="16" fill="#ebae4b" />
  <rect x="112" y="384" width="16" height="16" fill="#ebae4b" />
  <rect x="128" y="384" width="16" height="16" fill="#ebae4b" />
  <rect x="144" y="384" width="16" height="16" fill="#ebae4b" />
  <rect x="160" y="384" width="16" height="16" fill="#ebae4b" />
  <rect x="176" y="384" width="16" height="16" fill="#ebae4b" />
  <rect x="192" y="384" width="16" height="16" fill="#ebae4b" />
  <rect x="208" y="384" width="16" height="16" fill="#ebae4b" />
  <rect x="224" y="384" width="16" height="16" fill="#ebae4b" />
  <rect x="240" y="384" width="16" height="16" fill="#ebae4b" />
  <rect x="256" y="384" width="16" height="16" fill="#ebae4b" />
  <rect x="272" y="384" width="16" height="16" fill="#ebae4b" />
  <rect x="288" y="384" width="16" height="16" fill="#ebae4b" />
  <rect x="304" y="384" width="16" height="16" fill="#ebae4b" />
  <rect x="320" y="384" width="16" height="16" fill="#ebae4b" />
  <rect x="336" y="384" width="16" height="16" fill="#ebae4b" />
  <rect x="352" y="384" width="16" height="16" fill="#ebae4b" />
  <rect x="368" y="384" width="16" height="16" fill="#ebae4b" />
  <rect x="384" y="384" width="16" height="16" fill="#ebae4b" />
  <rect x="400" y="384" width="16" height="16" fill="#ebae4b" />
  <rect x="416" y="384" width="16" height="16" fill="#ebae4b" />
  <rect x="432" y="384" width="16" height="16" fill="#ebae4b" />
  <rect x="448" y="384" width="16" height="16" fill="#ebae4b" />
  <rect x="464" y="384" width="16" height="16" fill="#ebae4b" />
  <rect x="32" y="400" width="16" height="16" fill="#d29533" />
  <rect x="48" y="400" width="16" height="16" fill="#ebae4b" />
  <rect x="64" y="400" width="16" height="16" fill="#ebae4b" />
  <rect x="80" y="400" width="16" height="16" fill="#ebae4b" />
  <rect x="96" y="400" width="16" height="16" fill="#ebae4b" />
  <rect x="112" y="400" width="16" height="16" fill="#ebae4b" />
  <rect x="128" y="400" width="16" height="16" fill="#ebae4b" />
  <rect x="144" y="400" width="16" height="16" fill="#ebae4b" />
  <rect x="160" y="400" width="16" height="16" fill="#ebae4b" />
  <rect x="176" y="400" width="16" height="16" fill="#ebae4b" />
  <rect x="192" y="400" width="16" height="16" fill="#ebae4b" />
  <rect x="208" y="400" width="16" height="16" fill="#ebae4b" />
  <rect x="224" y="400" width="16" height="16" fill="#ebae4b" />
  <rect x="240" y="400" width="16" height="16" fill="#ebae4b" />
  <rect x="256" y="400" width="16" height="16" fill="#ebae4b" />
  <rect x="272" y="400" width="16" height="16" fill="#ebae4b" />
  <rect x="288" y="400" width="16" height="16" fill="#ebae4b" />
  <rect x="304" y="400" width="16" height="16" fill="#ebae4b" />
  <rect x="320" y="400" width="16" height="16" fill="#ebae4b" />
  <rect x="336" y="400" width="16" height="16" fill="#ebae4b" />
  <rect x="352" y="400" width="16" height="16" fill="#ebae4b" />
  <rect x="368" y="400" width="16" height="16" fill="#ebae4b" />
  <rect x="384" y="400" width="16" height="16" fill="#ebae4b" />
  <rect x="400" y="400" width="16" height="16" fill="#ebae4b" />
  <rect x="416" y="400" width="16" height="16" fill="#ebae4b" />
  <rect x="432" y="400" width="16" height="16" fill="#ebae4b" />
  <rect x="448" y="400" width="16" height="16" fill="#ebae4b" />
  <rect x="464" y="400" width="16" height="16" fill="#ebae4b" />
  <rect x="32" y="416" width="16" height="16" fill="#d29533" />
  <rect x="48" y="416" width="16" height="16" fill="#ebae4b" />
  <rect x="64" y="416" width="16" height="16" fill="#ebae4b" />
  <rect x="80" y="416" width="16" height="16" fill="#ebae4b" />
  <rect x="96" y="416" width="16" height="16" fill="#ebae4b" />
  <rect x="112" y="416" width="16" height="16" fill="#ebae4b" />
  <rect x="128" y="416" width="16" height="16" fill="#ebae4b" />
  <rect x="144" y="416" width="16" height="16" fill="#ebae4b" />
  <rect x="160" y="416" width="16" height="16" fill="#ebae4b" />
  <rect x="176" y="416" width="16" height="16" fill="#ebae4b" />
  <rect x="192" y="416" width="16" height="16" fill="#ebae4b" />
  <rect x="208" y="416" width="16" height="16" fill="#ebae4b" />
  <rect x="224" y="416" width="16" height="16" fill="#ebae4b" />
  <rect x="240" y="416" width="16" height="16" fill="#ebae4b" />
  <rect x="256" y="416" width="16" height="16" fill="#ebae4b" />
  <rect x="272" y="416" width="16" height="16" fill="#ebae4b" />
  <rect x="288" y="416" width="16" height="16" fill="#ebae4b" />
  <rect x="304" y="416" width="16" height="16" fill="#ebae4b" />
  <rect x="320" y="416" width="16" height="16" fill="#ebae4b" />
  <rect x="336" y="416" width="16" height="16" fill="#ebae4b" />
  <rect x="352" y="416" width="16" height="16" fill="#ebae4b" />
  <rect x="368" y="416" width="16" height="16" fill="#ebae4b" />
  <rect x="384" y="416" width="16" height="16" fill="#ebae4b" />
  <rect x="400" y="416" width="16" height="16" fill="#ebae4b" />
  <rect x="416" y="416" width="16" height="16" fill="#ebae4b" />
  <rect x="432" y="416" width="16" height="16" fill="#ebae4b" />
  <rect x="448" y="416" width="16" height="16" fill="#ebae4b" />
  <rect x="464" y="416" width="16" height="16" fill="#ebae4b" />
  <rect x="32" y="432" width="16" height="16" fill="#d29533" />
  <rect x="48" y="432" width="16" height="16" fill="#ebae4b" />
  <rect x="64" y="432" width="16" height="16" fill="#ebae4b" />
  <rect x="80" y="432" width="16" height="16" fill="#ebae4b" />
  <rect x="96" y="432" width="16" height="16" fill="#ebae4b" />
  <rect x="112" y="432" width="16" height="16" fill="#ebae4b" />
  <rect x="128" y="432" width="16" height="16" fill="#ebae4b" />
  <rect x="144" y="432" width="16" height="16" fill="#ebae4b" />
  <rect x="160" y="432" width="16" height="16" fill="#ebae4b" />
  <rect x="176" y="432" width="16" height="16" fill="#ebae4b" />
  <rect x="192" y="432" width="16" height="16" fill="#ebae4b" />
  <rect x="208" y="432" width="16" height="16" fill="#ebae4b" />
  <rect x="224" y="432" width="16" height="16" fill="#ebae4b" />
  <rect x="240" y="432" width="16" height="16" fill="#ebae4b" />
  <rect x="256" y="432" width="16" height="16" fill="#ebae4b" />
  <rect x="272" y="432" width="16" height="16" fill="#ebae4b" />
  <rect x="288" y="432" width="16" height="16" fill="#ebae4b" />
  <rect x="304" y="432" width="16" height="16" fill="#ebae4b" />
  <rect x="320" y="432" width="16" height="16" fill="#ebae4b" />
  <rect x="336" y="432" width="16" height="16" fill="#ebae4b" />
  <rect x="352" y="432" width="16" height="16" fill="#ebae4b" />
  <rect x="368" y="432" width="16" height="16" fill="#ebae4b" />
  <rect x="384" y="432" width="16" height="16" fill="#ebae4b" />
  <rect x="400" y="432" width="16" height="16" fill="#ebae4b" />
  <rect x="416" y="432" width="16" height="16" fill="#ebae4b" />
  <rect x="432" y="432" width="16" height="16" fill="#ebae4b" />
  <rect x="448" y="432" width="16" height="16" fill="#ebae4b" />
  <rect x="464" y="432" width="16" height="16" fill="#ebae4b" />
</g>
</svg>